<?xml version="1.0"?>
<svg xmlns="http://www.w3.org/2000/svg" id="Outline" viewBox="0 0 64 64" width="512" height="512"><path d="M60.395,44a6.665,6.665,0,0,0-9.10205.293,4.661,4.661,0,0,1-6.58594,0,6.66386,6.66386,0,0,0-9.41406,0,4.661,4.661,0,0,1-6.58594,0,6.66386,6.66386,0,0,0-9.41406,0,4.661,4.661,0,0,1-6.58594,0A6.665,6.665,0,0,0,3.605,44H2v2H4.41406l.293-.293a4.661,4.661,0,0,1,6.58594,0,6.66386,6.66386,0,0,0,9.41406,0,4.661,4.661,0,0,1,6.58594,0,6.66386,6.66386,0,0,0,9.41406,0,4.661,4.661,0,0,1,6.58594,0,6.665,6.665,0,0,0,9.41406,0,4.661,4.661,0,0,1,6.58594,0l.293.293H62V44Z"/><path d="M47.293,54.9502a3.12423,3.12423,0,0,1-4.58594,0L41.293,56.36426A5.656,5.656,0,0,0,45.105,58.001,5.01645,5.01645,0,0,0,48.707,56.36426a3.12834,3.12834,0,0,1,4.58936.0039l1.41064-1.418A5.05587,5.05587,0,0,0,47.293,54.9502Z"/><path d="M31.293,52.9502a3.125,3.125,0,0,1-4.58594,0L25.293,54.36426A5.656,5.656,0,0,0,29.105,56.001,5.01645,5.01645,0,0,0,32.707,54.36426a3.12834,3.12834,0,0,1,4.58936.0039l1.41064-1.418A5.05429,5.05429,0,0,0,31.293,52.9502Z"/><path d="M14.293,54.9502a3.12413,3.12413,0,0,1-4.58594,0L8.293,56.36426A5.656,5.656,0,0,0,12.105,58.001,5.01645,5.01645,0,0,0,15.707,56.36426a3.12824,3.12824,0,0,1,4.58936.0039l1.41064-1.418A5.05587,5.05587,0,0,0,14.293,54.9502Z"/><path d="M24.55566,33.18555a1.98851,1.98851,0,0,0-.10839-1.52735L22.3418,27.44727a2.0007,2.0007,0,0,0-2.6836-.89454L15.44727,28.6582a2.00032,2.00032,0,0,0-.89454,2.6836l2.10547,4.21093a1.99807,1.99807,0,0,0,2.6836.89454l4.21093-2.10547A1.98687,1.98687,0,0,0,24.55566,33.18555ZM18.44727,34.6582l-2.10694-4.21,4.2124-2.10644,2.10547,4.21093Z"/><path d="M32.21094,39.6582a2.9831,2.9831,0,0,0,1.73486,1.50489A2.98245,2.98245,0,0,0,36.23633,41l2.42187-1.21094A3.00045,3.00045,0,0,0,40,35.76367L38.78906,33.3418A2.9997,2.9997,0,0,0,34.76367,32L32.3418,33.21094A3.00045,3.00045,0,0,0,31,37.23633Zm.52344-4.08008A.99341.99341,0,0,1,33.23633,35l2.42187-1.21094a1.00054,1.00054,0,0,1,.44678-.10644,1.01574,1.01574,0,0,1,.3169.05176.99507.99507,0,0,1,.57812.502l1.21094,2.42187A.999.999,0,0,1,37.76367,38L35.3418,39.21094A.999.999,0,0,1,34,38.76367L32.78906,36.3418A.99323.99323,0,0,1,32.73438,35.57812Z"/><path d="M29.44922,31.65918a1.99743,1.99743,0,0,0,.89258-.21191l4.21093-2.10547a2.00032,2.00032,0,0,0,.89454-2.6836L33.3418,22.44727a2.0007,2.0007,0,0,0-2.6836-.89454L26.44727,23.6582a2.00032,2.00032,0,0,0-.89454,2.6836l2.10547,4.21093a2.00562,2.00562,0,0,0,1.791,1.10645Zm-2.10889-6.21094,4.2124-2.10644,2.10547,4.21093L29.44727,29.6582Z"/><path d="M4.11768,30.38184a1.504,1.504,0,0,0,.67138-.15821l1.74475-.87237,5.24646,11.0755,1.80762-.85547L8.32275,28.457l26.23-13.11523L48.10742,42.45117l1.78906-.89453L36.34174,14.44714l1.71588-.85827a1.49987,1.49987,0,0,0-.43457-2.82227L14.51855,7.07031a1.5011,1.5011,0,0,0-1.57714.81055L2.77637,28.21094a1.49995,1.49995,0,0,0,1.34131,2.1709ZM14.56641,9.10254l21.20605,3.39355-.32507.16242-.00012-.00031L5.67725,27.543l.00006.00006-.44147.22064Z"/><path d="M25.55273,38.3418l1.05274,2.10547,1.78906-.89454L27.3418,37.44727a2.004,2.004,0,0,0-2.6836-.89454l-4.105,2.05274.89453,1.78906Z"/></svg>
