<svg id="Filled_outline" height="512" viewBox="0 0 64 64" width="512" xmlns="http://www.w3.org/2000/svg" data-name="Filled outline"><path d="m51 46-16-32-28 14 9 19v5h35z" fill="#efefef"/><rect fill="#a8d8ff" height="6.708" rx="1" transform="matrix(.894 -.447 .447 .894 -15.973 15.338)" width="6.708" x="21.146" y="38.146"/><path d="m2 45h2a5.65685 5.65685 0 0 1 8 0 5.65685 5.65685 0 0 0 8 0 5.65685 5.65685 0 0 1 8 0 5.65685 5.65685 0 0 0 8 0 5.65685 5.65685 0 0 1 8 0 5.65685 5.65685 0 0 0 8 0 5.65685 5.65685 0 0 1 8 0h2v17h-60z" fill="#75c1ff"/><g fill="#c1e3ff"><rect height="6.708" rx="1" transform="matrix(.894 -.447 .447 .894 -12.029 12.046)" width="6.708" x="16.146" y="28.146"/><rect height="6.708" rx="1" transform="matrix(.894 -.447 .447 .894 -12.575 19.729)" width="6.708" x="32.146" y="33.146"/><rect height="6.708" rx="1" transform="matrix(.894 -.447 .447 .894 -8.631 16.438)" width="6.708" x="27.146" y="23.146"/></g><path d="m37.6094 12.6953a.5.5 0 0 0 -.14461-.94093l-23.10261-3.69637a.5.5 0 0 0 -.52621.27011l-10.16515 20.33025a.5.5 0 0 0 .67082.67082z" fill="#ff675b"/><path d="m60.395 44a6.665 6.665 0 0 0 -9.10205.293 4.661 4.661 0 0 1 -6.58594 0 6.66386 6.66386 0 0 0 -9.41406 0 4.661 4.661 0 0 1 -6.58594 0 6.66386 6.66386 0 0 0 -9.41406 0 4.661 4.661 0 0 1 -6.58594 0 6.665 6.665 0 0 0 -9.10201-.293h-1.605v2h2.41406l.293-.293a4.661 4.661 0 0 1 6.58594 0 6.66386 6.66386 0 0 0 9.41406 0 4.661 4.661 0 0 1 6.58594 0 6.66386 6.66386 0 0 0 9.41406 0 4.661 4.661 0 0 1 6.58594 0 6.665 6.665 0 0 0 9.41406 0 4.661 4.661 0 0 1 6.58594 0l.293.293h2.414v-2z"/><path d="m47.293 54.9502a3.12423 3.12423 0 0 1 -4.58594 0l-1.41406 1.41406a5.656 5.656 0 0 0 3.812 1.63674 5.01645 5.01645 0 0 0 3.602-1.63674 3.12834 3.12834 0 0 1 4.58936.0039l1.41064-1.418a5.05587 5.05587 0 0 0 -7.414.00004z"/><path d="m31.293 52.9502a3.125 3.125 0 0 1 -4.58594 0l-1.41406 1.41406a5.656 5.656 0 0 0 3.812 1.63674 5.01645 5.01645 0 0 0 3.602-1.63674 3.12834 3.12834 0 0 1 4.58936.0039l1.41064-1.418a5.05429 5.05429 0 0 0 -7.414.00004z"/><path d="m14.293 54.9502a3.12413 3.12413 0 0 1 -4.58594 0l-1.41406 1.41406a5.656 5.656 0 0 0 3.812 1.63674 5.01645 5.01645 0 0 0 3.602-1.63674 3.12824 3.12824 0 0 1 4.58936.0039l1.41064-1.418a5.05587 5.05587 0 0 0 -7.414.00004z"/><path d="m24.55566 33.18555a1.98851 1.98851 0 0 0 -.10839-1.52735l-2.10547-4.21093a2.0007 2.0007 0 0 0 -2.6836-.89454l-4.21093 2.10547a2.00032 2.00032 0 0 0 -.89454 2.6836l2.10547 4.21093a1.99807 1.99807 0 0 0 2.6836.89454l4.21093-2.10547a1.98687 1.98687 0 0 0 1.00293-1.15625zm-6.10839 1.47265-2.10694-4.21 4.2124-2.10644 2.10547 4.21093z"/><path d="m32.21094 39.6582a2.9831 2.9831 0 0 0 1.73486 1.50489 2.98245 2.98245 0 0 0 2.29053-.16309l2.42187-1.21094a3.00045 3.00045 0 0 0 1.3418-4.02539l-1.21094-2.42187a2.9997 2.9997 0 0 0 -4.02539-1.3418l-2.42187 1.21094a3.00045 3.00045 0 0 0 -1.3418 4.02539zm.52344-4.08008a.99341.99341 0 0 1 .50195-.57812l2.42187-1.21094a1.00054 1.00054 0 0 1 .44678-.10644 1.01574 1.01574 0 0 1 .3169.05176.99507.99507 0 0 1 .57812.502l1.21094 2.42187a.999.999 0 0 1 -.44727 1.34175l-2.42187 1.21094a.999.999 0 0 1 -1.3418-.44727l-1.21094-2.42187a.99323.99323 0 0 1 -.05468-.76368z"/><path d="m29.44922 31.65918a1.99743 1.99743 0 0 0 .89258-.21191l4.21093-2.10547a2.00032 2.00032 0 0 0 .89454-2.6836l-2.10547-4.21093a2.0007 2.0007 0 0 0 -2.6836-.89454l-4.21093 2.10547a2.00032 2.00032 0 0 0 -.89454 2.6836l2.10547 4.21093a2.00562 2.00562 0 0 0 1.791 1.10645zm-2.10889-6.21094 4.2124-2.10644 2.10547 4.21093-4.21093 2.10547z"/><path d="m4.11768 30.38184a1.504 1.504 0 0 0 .67138-.15821l1.74475-.87237 5.24646 11.0755 1.80762-.85547-5.26514-11.11429 26.23-13.11523 13.55467 27.1094 1.78906-.89453-13.55474-27.1095 1.71588-.85827a1.49987 1.49987 0 0 0 -.43457-2.82227l-23.1045-3.69629a1.5011 1.5011 0 0 0 -1.57714.81055l-10.16504 20.33008a1.49995 1.49995 0 0 0 1.34131 2.1709zm10.44873-21.2793 21.20605 3.39355-.32507.16242-.00012-.00031-29.77002 14.8848.00006.00006-.44147.22064z"/><path d="m25.55273 38.3418 1.05274 2.10547 1.78906-.89454-1.05273-2.10546a2.004 2.004 0 0 0 -2.6836-.89454l-4.105 2.05274.89453 1.78906z"/></svg>