<?xml version="1.0" encoding="utf-8"?>
<!-- Generator: Adobe Illustrator 22.0.1, SVG Export Plug-In . SVG Version: 6.00 Build 0)  -->
<svg version="1.1" id="Capa_1" xmlns="http://www.w3.org/2000/svg" xmlns:xlink="http://www.w3.org/1999/xlink" x="0px" y="0px"
	 viewBox="0 0 350 350" style="enable-background:new 0 0 350 350;" xml:space="preserve">
<style type="text/css">
	.st0{fill:#5B5B5F;}
</style>
<g>
	<path class="st0" d="M193.9,271.1c-2.6-2.4-3.3-4.8-3.2-8.3c0.1-29.5,0.1-58.9,0-88.4c0-29.5,0-58.9,0-88.4
		c0-9.7-3.6-13.9-12.3-14.1c-1.3,0-2.7,0-4,0c-11.3,0-14.1,3.2-14.1,15.8c0,58,0,116,0.1,174c0,4.1-0.9,7-3.8,9.8
		c-12.9,12.2-13.6,34.3-1.9,48c11.3,13.3,30.7,13.3,41.7-0.1C208,305.1,207.1,283.3,193.9,271.1z M197.9,304.8
		c-3.1,10.8-12.2,18.6-22,18.7c-10.6,0.2-19.7-7.3-23.2-19.1c-3.1-10.4,0.2-22.8,8.6-29.4c3.4-2.7,4.3-5.7,4.3-10
		c-0.1-22-0.1-44-0.1-66c0,0,0,0,0,0c0-22.2,0-44.4,0-66.6c0-7.1,1.4-8.6,7.8-8.8c1.7-0.1,3.4-0.1,5.1,0c5.4,0.3,6.9,2,6.9,8
		c0,44.8,0,89.5-0.1,134.3c0,3.8,0.8,6.3,3.7,8.5C197.7,281.3,201.1,293.4,197.9,304.8z"/>
	<path class="st0" d="M196,197.2l0.1-78.6l0-1.5C195.9,143.8,196,170.5,196,197.2z"/>
	<path class="st0" d="M174.8,0C136.3,0-20.9,303.1,1.8,328.9c23.2,26.4,319.5,29.9,345.9,0C370.7,302.8,212.5,0,174.8,0z
		 M199.5,324.5c-13.1,14.7-39.1,16.7-51.8-3.1c-2.5-3.9-5.9-7.7-6.7-12.1c-2.9-15,0.1-28.8,9.4-40.2c3-3.6,3.6-7.5,3.6-12
		c-0.2-55.3-0.3-110.5-0.4-165.8c0-4,0-8.2,1.2-11.8c2.6-8.6,8.1-13.5,16.4-13.6c4.2-0.1,8.5-0.1,12.6,0.6
		c7.4,1.4,12.4,8.5,12.4,16.9c0,5.9-0.2,11.9,0.1,17.8c0.1,2.7,0.1,2.7,0,5.4l0,10.6c0-0.8,0-1.7,0-2.5l0,4l0.1,98.6
		c0.3,13-0.1,26-0.2,39c0,4.3,0.6,7.8,3.3,11.5C213.3,286.2,213.1,309.1,199.5,324.5z"/>
</g>
</svg>
