<?xml version="1.0" encoding="utf-8"?>
<!-- Generator: Adobe Illustrator 22.0.1, SVG Export Plug-In . SVG Version: 6.00 Build 0)  -->
<svg version="1.1" id="Capa_1" xmlns="http://www.w3.org/2000/svg" xmlns:xlink="http://www.w3.org/1999/xlink" x="0px" y="0px"
	 viewBox="0 0 350 350" style="enable-background:new 0 0 350 350;" xml:space="preserve">
<style type="text/css">
	.st0{fill:#5B5B5F;}
</style>
<path class="st0" d="M39.5,151.9c43.6-36.6,87.1-73.4,130.7-110c2.4-2,5.2-3.6,7.9-5.4c40.3,36,79.8,71.5,119.6,106.6
	c7.8,6.9,16.4,13.3,25.5,18c8.4,4.4,17.5,3.6,24.6-6.7C291.2,103.2,234.9,52.2,177.3,0C118.1,52.1,60.1,103.2,2,154.4
	C14.8,166.9,22.5,166.2,39.5,151.9z"/>
<path class="st0" d="M298,17.4h-41.7v39.8C270.2,69.8,284.1,82.4,298,95V17.4z"/>
<g>
	<path class="st0" d="M56.5,203.6c0.1,0.4,0.1,0.8,0.2,1.1c13.3,0,25.5,3.3,36.7,10c7.9,4.8,16,9.4,24.1,13.9
		c7.9,4.4,16.2,4.9,24.5,1.1c13.3-6.1,26.4-12.4,39.8-18.5c22.1-10,44.1-9.1,65.5,1.9c9.4,4.8,18.7,10,27.9,15.1
		c7.6,4.3,15.1,4.9,22.8,1.9c0-21.6,0-43.3-0.2-64.9c0-3.5-2.1-8-4.9-10.3c-38-32.3-76.2-64.2-115.6-97.3
		C135.1,91.1,94,123.4,53.2,156c-2.5,2-4.9,5.9-4.9,8.9c-0.1,13.5-0.2,26.9-0.2,40.4C50.9,204.7,53.7,204.3,56.5,203.6z"/>
</g>
<path class="st0" d="M347.8,221.2c-15.2,7.8-30.5,15.7-45.6,23.8c-9.3,5-18.2,5.1-27.5-0.2c-9-5.2-18.2-10.1-27.5-15
	c-19.7-10.3-40.4-11.8-61.1-3.6c-15.1,6-29.4,13.5-44.2,20.2c-8.3,3.8-16.5,3.5-24.4-1.1c-8.4-4.9-16.8-9.7-25.2-14.6
	c-10.9-6.3-22.7-9.4-36.8-9.3c-9.9-0.3-20.3,2.4-30.2,7c-7.8,3.7-15.6,7.4-23.4,11v46.3c14.4-6.8,28.7-13.5,43.1-20.3
	c8.6-4.1,17-3.7,25.2,1.1c8.4,4.9,16.7,9.9,25.2,14.6c19.5,10.7,40.1,12.6,60.9,4.3c15.1-6,29.5-13.4,44.2-20.2
	c8.6-3.9,17.1-3.7,25.4,0.7c9.7,5.2,19.2,10.7,29,15.7c21.9,11.3,44,11.6,66.1,0.5c9-4.5,17.9-9.1,26.8-13.8L347.8,221.2
	L347.8,221.2z"/>
<path class="st0" d="M347.8,280.7c-15.8,8.2-31.6,16.5-47.4,24.6c-8,4.1-16.1,4.1-24-0.2c-9.8-5.3-19.5-10.8-29.4-15.9
	c-19.8-10.2-40.4-11.7-61.1-3.4c-14.8,5.9-29,13.1-43.4,19.9c-8.7,4-17,3.7-25.2-1c-8-4.6-16-9.4-24.1-13.9
	c-22-12.4-44.6-13.4-67.6-2.8c-7.9,3.6-15.7,7.3-23.6,11v46.3c14.2-6.7,28.4-13.4,42.5-20.1c8.9-4.2,17.5-4.1,26,1
	c8.2,4.9,16.4,9.8,24.8,14.3c21.2,11.6,43.1,12.5,65.4,2.8c13.4-5.9,26.5-12.3,39.8-18.4c8.7-4,17.3-3.8,25.7,0.8
	c9.7,5.2,19.3,10.5,29,15.7c10.1,5.5,21.1,8.3,33.8,8.2c11,0.2,22.2-2.6,32.7-8.1c8.7-4.6,17.4-9.1,26.1-13.6L347.8,280.7
	L347.8,280.7z"/>
</svg>
