<?xml version="1.0" encoding="utf-8"?>
<!-- Generator: Adobe Illustrator 22.0.1, SVG Export Plug-In . SVG Version: 6.00 Build 0)  -->
<svg version="1.1" id="Capa_1" xmlns="http://www.w3.org/2000/svg" xmlns:xlink="http://www.w3.org/1999/xlink" x="0px" y="0px"
	 viewBox="0 0 350 350" style="enable-background:new 0 0 350 350;" xml:space="preserve">
<style type="text/css">
	.st0{fill:#BF0411;}
</style>
<path class="st0" d="M39.5,151.4c43.6-36.6,87.1-73.4,130.7-110c2.4-2,5.2-3.6,7.9-5.4c40.3,36,79.8,71.5,119.6,106.6
	c7.8,6.9,16.4,13.3,25.5,18c8.4,4.4,17.5,3.6,24.6-6.7C291.2,102.7,234.9,51.7,177.3-0.5C118.1,51.6,60.1,102.7,2,153.9
	C14.8,166.4,22.5,165.7,39.5,151.4z"/>
<path class="st0" d="M298,16.9h-41.7v39.8c13.9,12.6,27.8,25.2,41.7,37.8V16.9z"/>
<g>
	<path class="st0" d="M56.5,212.6c0.1,0.4,0.1,0.8,0.2,1.2c13.3,0,25.5,3.6,36.7,10.7c7.9,5.1,16,10,24.1,14.8
		c7.9,4.7,16.2,5.2,24.5,1.1c13.3-6.5,26.4-13.2,39.8-19.7c22.1-10.7,44.1-9.7,65.5,2c9.4,5.1,18.7,10.6,27.9,16.1
		c7.6,4.6,15.1,5.2,22.8,2.1c0-23,0-46.1-0.2-69.1c0-3.7-2.1-8.5-4.9-11c-38-34.4-76.2-68.4-115.6-103.6
		C135.1,92.8,94,127.2,53.2,161.9c-2.5,2.2-4.9,6.3-4.9,9.5c-0.1,14.3-0.2,28.7-0.2,43C50.9,213.8,53.7,213.3,56.5,212.6z"/>
</g>
<path class="st0" d="M347.8,231.3c-15.2,7.2-30.5,14.5-45.6,21.9c-9.3,4.6-18.2,4.7-27.5-0.2c-9-4.8-18.2-9.3-27.5-13.8
	c-19.7-9.5-40.4-10.9-61.1-3.3c-15.1,5.5-29.4,12.4-44.2,18.6c-8.3,3.5-16.5,3.2-24.4-1c-8.4-4.5-16.8-9-25.2-13.4
	c-10.9-5.8-22.7-8.7-36.8-8.6c-9.9-0.2-20.3,2.2-30.2,6.5c-7.8,3.4-15.6,6.8-23.4,10.2v42.7c14.4-6.2,28.7-12.5,43.1-18.7
	c8.6-3.8,17-3.4,25.2,1c8.4,4.5,16.7,9.1,25.2,13.4c19.5,9.9,40.1,11.6,60.9,4c15.1-5.5,29.5-12.4,44.2-18.6
	c8.6-3.6,17.1-3.4,25.4,0.7c9.7,4.8,19.2,9.9,29,14.5c21.9,10.4,44,10.7,66.1,0.5c9-4.1,17.9-8.4,26.8-12.7L347.8,231.3L347.8,231.3
	z"/>
<path class="st0" d="M347.8,286.1c-15.8,7.5-31.6,15.2-47.4,22.7c-8,3.8-16.1,3.7-24-0.2c-9.8-4.9-19.5-10-29.4-14.7
	c-19.8-9.4-40.4-10.8-61.1-3.1c-14.8,5.5-29,12.1-43.4,18.3c-8.7,3.7-17,3.4-25.2-0.9c-8-4.3-16-8.6-24.1-12.8
	c-22-11.4-44.6-12.4-67.6-2.6C17.7,296.2,9.9,299.6,2,303v42.7c14.2-6.2,28.4-12.3,42.5-18.5c8.9-3.9,17.5-3.7,26,0.9
	c8.2,4.5,16.4,9,24.8,13.2c21.2,10.7,43.1,11.5,65.4,2.5c13.4-5.4,26.5-11.4,39.8-17c8.7-3.7,17.3-3.5,25.7,0.7
	c9.7,4.8,19.3,9.7,29,14.5c10.1,5.1,21.1,7.6,33.8,7.6c11,0.2,22.2-2.4,32.7-7.5c8.7-4.2,17.4-8.4,26.1-12.5L347.8,286.1
	L347.8,286.1z"/>
</svg>
