<svg height="512pt" viewBox="-1 0 512 512" width="512pt" xmlns="http://www.w3.org/2000/svg"><path d="m501.988281 466.59375c-18.539062 0-27.921875 9.191406-36.199219 17.296875-7.398437 7.25-13.246093 12.972656-25.605468 12.972656-12.363282 0-18.210938-5.722656-25.609375-12.972656-8.277344-8.105469-17.65625-17.296875-36.199219-17.296875-18.539062 0-27.921875 9.191406-36.195312 17.296875-7.402344 7.25-13.246094 12.972656-25.609376 12.972656-12.359374 0-18.203124-5.722656-25.605468-12.972656-8.273438-8.105469-17.65625-17.296875-36.195313-17.296875-18.539062 0-27.917969 9.191406-36.195312 17.296875-7.398438 7.25-13.242188 12.972656-25.605469 12.972656-12.359375 0-18.203125-5.722656-25.605469-12.972656-8.273437-8.105469-17.65625-17.296875-36.195312-17.296875-18.539063 0-27.917969 9.191406-36.195313 17.296875-7.398437 7.25-13.242187 12.972656-25.605468 12.972656-12.359376 0-18.203126-5.722656-25.605469-12.972656-8.273438-8.105469-17.65625-17.296875-36.195313-17.296875-4.179687 0-7.566406 3.386719-7.566406 7.566406 0 4.179688 3.386719 7.570313 7.566406 7.570313 12.363282 0 18.207032 5.722656 25.605469 12.972656 8.277344 8.105469 17.65625 17.296875 36.195313 17.296875 18.539062 0 27.921874-9.1875 36.199218-17.296875 7.398438-7.25 13.242188-12.972656 25.601563-12.972656 12.363281 0 18.207031 5.722656 25.605469 12.972656 8.277343 8.109375 17.660156 17.296875 36.199218 17.296875 18.539063 0 27.917969-9.1875 36.195313-17.296875 7.398437-7.25 13.242187-12.972656 25.601562-12.972656 12.363281 0 18.207031 5.722656 25.605469 12.972656 8.277344 8.105469 17.65625 17.296875 36.195312 17.296875 18.542969 0 27.921876-9.1875 36.199219-17.296875 7.398438-7.25 13.242188-12.972656 25.605469-12.972656s18.207031 5.722656 25.609375 12.972656c8.277344 8.109375 17.65625 17.296875 36.199219 17.296875 18.539062 0 27.921875-9.1875 36.195312-17.296875 7.402344-7.25 13.246094-12.972656 25.609375-12.972656 4.179688 0 7.566407-3.390625 7.566407-7.570313 0-4.179687-3.386719-7.566406-7.566407-7.566406zm0 0"/><path d="m501.992188 410.777344c-18.542969 0-27.925782 9.1875-36.203126 17.296875-7.398437 7.25-13.246093 12.972656-25.609374 12.972656-9.625 0-15.257813-3.492187-20.433594-8.078125v-37.449219c5.511718 2.914063 12.082031 4.84375 20.433594 4.84375 18.542968 0 27.921874-9.1875 36.199218-17.296875 7.402344-7.246094 13.25-12.972656 25.613282-12.972656 4.179687 0 7.566406-3.386719 7.566406-7.566406 0-4.179688-3.386719-7.570313-7.566406-7.570313-18.542969 0-27.925782 9.191407-36.203126 17.296875-7.398437 7.25-13.246093 12.976563-25.609374 12.976563-9.625 0-15.257813-3.496094-20.433594-8.082031v-108.292969l10.671875 10.671875c1.417969 1.421875 3.34375 2.21875 5.351562 2.21875 2.007813 0 3.929688-.796875 5.351563-2.21875l42.808594-42.808594c2.957031-2.957031 2.957031-7.746094 0-10.703125l-59.039063-59.035156c-2.953125-2.957031-7.746094-2.957031-10.699219 0-2.957031 2.953125-2.957031 7.746093 0 10.699219l53.683594 53.6875-32.105469 32.105468-175.640625-175.636718c-1.417968-1.421876-3.34375-2.21875-5.347656-2.21875-2.007812 0-3.933594.796874-5.351562 2.21875l-175.640626 175.640624-32.109374-32.109374 213.101562-213.097657 139.734375 139.734375c2.953125 2.957032 7.746094 2.957032 10.699219 0 2.957031-2.953125 2.957031-7.746094 0-10.699218l-145.085938-145.085938c-1.417968-1.421875-3.34375-2.21875-5.347656-2.21875-2.007812 0-3.933594.796875-5.351562 2.21875l-223.800782 223.796875c-1.421875 1.417969-2.21875 3.34375-2.21875 5.351563 0 2.007812.796875 3.933593 2.21875 5.351562l42.808594 42.808594c1.417969 1.421875 3.34375 2.21875 5.351562 2.21875 2.007813 0 3.933594-.796875 5.351563-2.21875l10.667969-10.667969v14.75c0 4.179687 3.386718 7.566406 7.566406 7.566406s7.566406-3.386719 7.566406-7.566406v-29.886719l149.839844-149.835937 149.832031 149.832031v165.5c-6.441406-4.757812-14.5-8.441406-26.234375-8.441406-18.546875 0-27.925781 9.191406-36.203125 17.300781-7.398437 7.246094-13.242187 12.96875-25.601562 12.96875-12.363281 0-18.210938-5.722656-25.609375-12.972656-8.277344-8.105469-17.65625-17.296875-36.191406-17.296875-18.535157 0-27.917969 9.1875-36.191407 17.296875-7.402343 7.25-13.246093 12.972656-25.613281 12.972656-12.355469 0-18.199219-5.722656-25.597656-12.96875-8.277344-8.109375-17.660156-17.300781-36.203125-17.300781-11.730469 0-19.789063 3.683594-26.226563 8.441406v-105.335938c0-4.179687-3.386718-7.570312-7.566406-7.570312s-7.566406 3.390625-7.566406 7.570312v63.265626c-5.175782 4.585937-10.808594 8.082031-20.445313 8.082031-12.359375 0-18.199219-5.726563-25.597656-12.972657-8.277344-8.109374-17.65625-17.296874-36.191406-17.296874-4.179688 0-7.57031275 3.386718-7.57031275 7.566406 0 4.179687 3.39062475 7.566406 7.57031275 7.566406 12.355469 0 18.199219 5.726562 25.597656 12.972656 8.277344 8.109375 17.65625 17.296875 36.191406 17.296875 8.359375 0 14.933594-1.929687 20.445313-4.84375v37.449219c-5.175782 4.585938-10.808594 8.078125-20.445313 8.078125-12.359375 0-18.199219-5.722656-25.597656-12.972656-8.277344-8.105469-17.65625-17.296875-36.191406-17.296875-4.179688 0-7.57031275 3.390625-7.57031275 7.570312 0 4.175782 3.39062475 7.566406 7.57031275 7.566406 12.355469 0 18.199219 5.722657 25.597656 12.972657 8.277344 8.109375 17.65625 17.296875 36.191406 17.296875 15.867188 0 25.347657-6.925782 33.222657-14.410156 1.003906-.953126 1.992187-1.917969 2.980468-2.886719 7.398438-7.25 13.242188-12.972657 25.601563-12.972657 12.363281 0 18.210937 5.726563 25.609375 12.972657 8.277344 8.109375 17.65625 17.296875 36.191406 17.296875 18.542969 0 27.925781-9.191406 36.203125-17.296875 7.398437-7.25 13.242187-12.972657 25.601563-12.972657 12.355468 0 18.199218 5.722657 25.597656 12.972657 8.277344 8.105469 17.660156 17.296875 36.203125 17.296875 18.535156 0 27.917969-9.1875 36.191406-17.296875 7.402344-7.25 13.246094-12.972657 25.613281-12.972657 12.363282 0 18.210938 5.722657 25.613282 12.972657.984374.96875 1.972656 1.933593 2.976562 2.886719 7.878906 7.484374 17.355469 14.410156 33.210938 14.410156 18.542968 0 27.925781-9.191406 36.203124-17.296875 7.398438-7.25 13.246094-12.972657 25.609376-12.972657 4.179687 0 7.566406-3.390624 7.566406-7.570312s-3.386719-7.566406-7.566406-7.566406zm0 0"/><path d="m322.421875 374.097656c4.183594 0 7.570313-3.386718 7.570313-7.566406v-131.671875c0-4.179687-3.386719-7.566406-7.570313-7.566406h-131.667969c-4.179687 0-7.566406 3.386719-7.566406 7.566406v131.671875c0 4.179688 3.386719 7.566406 7.566406 7.566406zm-7.566406-15.132812h-50.699219v-116.539063h50.699219zm-116.535157-116.539063h50.699219v116.539063h-50.699219zm0 0"/><path d="m70.363281 97.085938c13.503907 0 27.53125-9.199219 28.214844-26.777344.023437-.636719.039063-1.28125.039063-1.925782 0-17.402343-9.375-33.640624-24.464844-42.371093-2.34375-1.359375-5.234375-1.359375-7.582032 0-15.085937 8.730469-24.460937 24.96875-24.460937 42.371093 0 .644532.015625 1.289063.039063 1.925782.683593 17.578125 14.710937 26.777344 28.214843 26.777344zm0-55.425782c8.183594 6.359375 13.117188 16.234375 13.117188 26.722656 0 .445313-.007813.890626-.027344 1.335938-.347656 9.027344-7.269531 12.230469-13.089844 12.230469-5.820312 0-12.738281-3.203125-13.089843-12.230469-.019532-.445312-.027344-.890625-.027344-1.335938 0-10.488281 4.933594-20.363281 13.117187-26.722656zm0 0"/><path d="m465.363281 162.042969c13.503907 0 27.53125-9.199219 28.214844-26.769531.027344-.640626.039063-1.285157.039063-1.933594 0-17.40625-9.375-33.640625-24.460938-42.371094-2.347656-1.359375-5.238281-1.359375-7.582031 0-15.089844 8.730469-24.460938 24.964844-24.460938 42.371094 0 .640625.011719 1.28125.035157 1.925781.683593 17.578125 14.714843 26.777344 28.214843 26.777344zm0-55.425781c8.183594 6.359374 13.117188 16.234374 13.117188 26.722656 0 .445312-.007813.886718-.023438 1.339844-.351562 9.023437-7.273437 12.226562-13.09375 12.226562-5.820312 0-12.738281-3.203125-13.089843-12.222656-.019532-.445313-.027344-.894532-.027344-1.34375 0-10.488282 4.933594-20.363282 13.117187-26.722656zm0 0"/><path d="m32.082031 344.546875c13.503907 0 27.53125-9.199219 28.214844-26.777344.023437-.640625.039063-1.28125.039063-1.929687 0-17.402344-9.375-33.636719-24.464844-42.371094-2.34375-1.355469-5.234375-1.355469-7.582032 0-15.085937 8.734375-24.460937 24.96875-24.460937 42.371094 0 .644531.015625 1.285156.039063 1.929687.683593 17.578125 14.710937 26.777344 28.214843 26.777344zm0-55.425781c8.183594 6.355468 13.117188 16.234375 13.117188 26.71875 0 .449218-.007813.894531-.023438 1.339844-.351562 9.027343-7.273437 12.230468-13.09375 12.230468-5.816406 0-12.738281-3.203125-13.089843-12.226562-.015626-.445313-.027344-.894532-.027344-1.34375 0-10.484375 4.933594-20.363282 13.117187-26.71875zm0 0"/><path d="m389.703125 80.4375c13.503906 0 27.53125-9.199219 28.214844-26.769531.023437-.640625.035156-1.285157.035156-1.933594 0-17.40625-9.371094-33.640625-24.460937-42.371094-2.34375-1.359375-5.234376-1.355469-7.582032 0-15.089844 8.730469-24.460937 24.96875-24.460937 42.371094 0 .648437.011719 1.292969.039062 1.925781.683594 17.578125 14.710938 26.777344 28.214844 26.777344zm0-55.425781c8.183594 6.359375 13.117187 16.234375 13.117187 26.722656 0 .445313-.007812.886719-.027343 1.339844-.351563 9.023437-7.269531 12.226562-13.089844 12.226562s-12.742187-3.203125-13.09375-12.238281c-.015625-.441406-.023437-.882812-.023437-1.328125 0-10.488281 4.929687-20.363281 13.117187-26.722656zm0 0"/></svg>