<?xml version="1.0" encoding="utf-8"?>
<!-- Generator: Adobe Illustrator 22.0.1, SVG Export Plug-In . SVG Version: 6.00 Build 0)  -->
<svg version="1.1" id="Capa_1" xmlns="http://www.w3.org/2000/svg" xmlns:xlink="http://www.w3.org/1999/xlink" x="0px" y="0px"
	 viewBox="0 0 349.8 350" style="enable-background:new 0 0 349.8 350;" xml:space="preserve">
<style type="text/css">
	.st0{fill:#5B5B5F;}
</style>
<path class="st0" d="M0,9.1v331.9l349.8-1.5c0,0-22.4-82.1-45.5-99.6c-16.3-12.4-63.4-13-82.2-22.2c-14.7-7.2-38.7-29.7-47.2-42.6
	c-10.1-15.4-17.1-52.9-30.9-65.8c-12.6-11.8-49.9-21.6-63.5-32.5C66.7,65.8,47.3,36.9,33.2,26.3C25.9,20.7,0,9.1,0,9.1z"/>
<path class="st0" d="M122.2,72.8c-6-4.6-6.6-21-12.3-25.7c-4.6-3.9-21.4-4.6-22.8-10.2C85.5,30.6,98,18.4,105,16.6
	c8-2.2,24.8,5.3,31.8,9.3c7,4.1,17.6,17.3,18.6,24.7c1,7.5-4.2,25.1-11.9,28.4c-4.3,1.8-14.8-0.8-18.2-3.6"/>
<path class="st0" d="M172.8,143.1c3.3,4.6,6.8,16.8,12.5,18.9c8.1,3,29.6-1.1,33.9-7.9c1.8-2.9-5.9-9.6-4.3-12.5
	c2.1-4,18.1-3,18.7-6.6c0.2-1-12.2-6.5-16.8-7.2c-4.7-0.6-14.1,2.8-18.7,2c-4.8-0.8-12.3-8.9-17.2-8.2c-5.2,0.7-14.6,8.9-14.4,13.5
	C166.6,137.6,171.3,141.1,172.8,143.1z"/>
<path class="st0" d="M248.2,198.2c1.9,2.7,11.9-2.3,14.5-0.1c2.7,2.3-2.2,10.2-4.7,12.7c-2.8,2.9-11.5,8.3-15.6,7
	c-5.2-1.7-9.3-13.1-8.7-17.9c0.5-4.4,6.7-14.5,11.8-14.5c2.6,0,5.7,5.2,5.8,7.5C251.4,194.4,247.3,196.9,248.2,198.2z"/>
</svg>
