<?xml version="1.0" encoding="utf-8"?>
<!-- Generator: Adobe Illustrator 22.0.1, SVG Export Plug-In . SVG Version: 6.00 Build 0)  -->
<svg version="1.1" id="Capa_1" xmlns="http://www.w3.org/2000/svg" xmlns:xlink="http://www.w3.org/1999/xlink" x="0px" y="0px"
	 viewBox="0 0 350 350" style="enable-background:new 0 0 350 350;" xml:space="preserve">
<style type="text/css">
	.st0{fill:#BF0411;}
</style>
<g>
	<path class="st0" d="M177.1,59.6c-37.9,31.9-74.8,62.8-111.5,93.9c-2.3,1.9-4.4,5.6-4.4,8.5c-0.3,37.4-0.4,74.9,0.2,112.3
		c0,0,0,0,0,0.1c0.1-0.1,0.2-0.1,0.2-0.2c7.6-6.3,15.5-12.6,23.2-18.8c2.6-2.1,6.6-3.3,12.8-3c6.3,0.3,9.1,2,10.2,4.2
		c1.3,2.6,2.5,5.2,3.8,7.8c3.3,6.6,6.6,13.2,9.8,19.8c0.5,1,1,2,1.5,3.1c1.3-1,1.8-2,2.1-3l0,0c6-18.3,12-36.5,17.8-54.8
		c0.7-2.3,3-4.1,8.4-5.2c2.5,0,5,0,7.5,0c5.9,1.3,7.8,3.5,8.8,5.9c6.6,15.8,13.5,31.6,20.2,47.4c0.2,0.5,0.6,1.1,1.4,2.3
		c2.3-2,4.1-3.5,5.8-5.1c2.6-2.4,5.2-4.7,7.7-7.1c2.1-2,5.7-3.4,11.6-3.4c6.2,0,9.7,1.5,11.6,3.7c3.7,4.3,7.5,8.5,11.2,12.8
		c1.8,2.8,4.1,5.5,6.9,6.9c5.1,2.6,9.5,0,12.2-4.2c1.8-1.3,3.6-2.6,5.3-4c3-2.3,7.4-3.4,14.3-3.4c3.2,0,6.3,0,9.5,0
		c0.2-1.1,0.3-2.4,0.3-3.8c-0.2-36.6,0-73.2-0.3-109.7c0-3.4-1.9-7.6-4.4-9.9C246.9,121.8,212.5,91.2,177.1,59.6z"/>
	<path class="st0" d="M53.3,144.1c39.2-32.9,78.3-65.9,117.5-98.8c2.2-1.8,4.7-3.2,7.1-4.8c36.2,32.3,71.7,64.2,107.5,95.8
		c7,6.2,14.7,11.9,23,16.2c7.6,3.9,15.7,3.2,22.1-6c-51-46.2-101.6-92-153.4-138.9C124,54.4,71.8,100.4,19.6,146.4
		C31.1,157.6,38,157,53.3,144.1z"/>
	<path class="st0" d="M289.9,294.1c-0.5-0.1-1.1-0.2-1.7-0.2c-1.2,0-2.3,0-3.5,0c-6.8-0.3-13.6-0.2-18.6,3.3
		c-0.6,0.2-1.3,0.5-1.9,0.8c-3.3,1.4-5.4,4.4-7.9,7c-1.7,1.2-3.5,2.5-5.3,3.8l0,0c-0.9,0.3-1.6,0.7-2.2,1.3
		c-0.7-0.7-1.2-1.1-1.5-1.5c-6.2-7-12.5-14.1-18.7-21.1c-1.9-2.2-5.5-3.7-11.7-3.7c-5.9,0-9.5,1.3-11.6,3.4
		c-2.5,2.4-5.1,4.7-7.7,7.1c-1.7,1.5-3.5,3.1-5.8,5.1c-0.7-1.2-1.1-1.7-1.4-2.3c-6.8-15.8-13.7-31.6-20.3-47.4
		c-1-2.5-2.9-4.6-8.8-5.9c-2.5,0-5,0-7.5,0c-5.4,1.1-7.7,2.9-8.4,5.2c-5.9,18.3-11.9,36.5-17.9,54.8c-0.3,1-0.8,2-2.1,3
		c-3.8-7.6-7.6-15.2-11.4-22.8c-1.3-2.6-2.6-5.2-3.8-7.8c-1.1-2.2-3.9-3.9-10.3-4.2c-6.2-0.3-10.2,0.9-12.8,3
		c-7.8,6.3-15.8,12.5-23.4,18.8c-0.1,0-0.1,0.1-0.2,0.1c-14.5,0-29,0-43.5,0v12.9c13.5,0,26.9,0,40.4,0c1.5,0,3,0,4.4,0
		c0.8,0,1.5,0,2.3,0c0.6,0,1.1-0.1,1.6-0.2c3.4-0.3,6.7-0.9,10-2.4c5.6-2.5,9.2-8.1,14-11.6c0.4-0.3,0.8-0.7,1.2-1
		c3.1,6.2,5.9,11.7,8.7,17.3c4.4,8.9,9,17.7,13.2,26.6c1.1,2.3,3.7,4,9.3,4.9c2.1,0,4.2,0,6.3,0c6.2-1.2,8.1-3.3,8.9-5.8
		c5.8-18.1,11.8-36.2,17.8-54.3c0.2-0.6,0.7-1.2,1.8-1.8c3.4,8,6.8,16.1,10.1,24.1c1.8,4.3,3.6,8.5,5.4,12.8c1,2.3,3.6,4.1,10.3,4.5
		c6.1,0.3,10.2-0.7,13.2-3.4c5.5-4.9,10.8-9.9,16.7-15.2c1.2,1.2,2.2,1.9,2.8,2.7c5.5,6.1,11,12.2,16.3,18.4c1.8,2,4.4,3.6,10.5,3.9
		c6.6,0.3,10.3-1.1,13.2-3.2c4.2-3.2,8.6-6.3,12.9-9.4c6.4-3.4,13.3-6.1,20.5-6.3c13,0,25.9,0,38.9,0v-12.9c-12.7,0-25.3,0-38,0
		C291.5,294.1,290.8,294.1,289.9,294.1z"/>
	<path class="st0" d="M285.6,23.2h-37.5V59c12.5,11.3,25,22.6,37.5,33.9V23.2z"/>
</g>
</svg>
