<svg height="512pt" viewBox="0 -13 512.001 512" width="512pt" xmlns="http://www.w3.org/2000/svg"><path d="m207.332031 164.097656c-3.128906-2.714844-7.863281-2.378906-10.578125.75-7.953125 9.167969-12.660156 20.394532-13.609375 32.460938-.019531.210937-.023437.425781-.023437.640625.265625 38.382812 15.261718 70.363281 45.835937 97.769531 1.429688 1.28125 3.21875 1.914062 5.003907 1.914062 2.054687 0 4.105468-.84375 5.585937-2.496093 2.765625-3.082031 2.503906-7.824219-.578125-10.589844-27.164062-24.34375-40.523438-52.601563-40.84375-86.371094.75-8.730469 4.191406-16.847656 9.960938-23.5 2.710937-3.128906 2.375-7.863281-.753907-10.578125zm0 0"/><path d="m246.96875 152.820312c0-4.144531-3.355469-7.5-7.5-7.5-7.210938 0-14.25 1.347657-20.917969 4.011719-3.84375 1.539063-5.71875 5.902344-4.179687 9.75 1.171875 2.933594 3.988281 4.71875 6.964844 4.71875.925781 0 1.867187-.171875 2.78125-.535156 4.890624-1.957031 10.054687-2.945313 15.351562-2.945313 4.144531 0 7.5-3.359374 7.5-7.5zm0 0"/><path d="m368.351562 118.53125c2.554688 6.582031 4.777344 13.386719 6.609376 20.226562.898437 3.351563 3.929687 5.5625 7.238281 5.5625.644531 0 1.296875-.085937 1.945312-.257812 4-1.070312 6.378907-5.183594 5.304688-9.1875-1.96875-7.359375-4.363281-14.683594-7.113281-21.769531-1.496094-3.863281-5.84375-5.777344-9.703126-4.28125-3.863281 1.5-5.777343 5.84375-4.28125 9.707031zm0 0"/><path d="m274.597656 14.15625c17.976563 9.335938 34.457032 21.429688 48.980469 35.945312 13.789063 13.78125 25.414063 29.355469 34.550781 46.285157 1.355469 2.511719 3.9375 3.9375 6.605469 3.9375 1.203125 0 2.421875-.289063 3.554687-.898438 3.648438-1.96875 5.007813-6.519531 3.039063-10.160156-9.828125-18.214844-22.328125-34.960937-37.148437-49.773437-15.609376-15.601563-33.328126-28.605469-52.671876-38.648438-3.671874-1.90625-8.199218-.476562-10.109374 3.203125-1.910157 3.671875-.476563 8.203125 3.199218 10.109375zm0 0"/><path d="m504.714844 396.996094c-.453125-.015625-14.761719-.484375-37.226563-2.816406l9.078125-33.027344v-.003906l4.457032-16.214844 7.9375 2.179687c1.40625.386719 2.828124.574219 4.238281.574219 4.828125 0 9.472656-2.203125 12.539062-6.148438 3.964844-5.101562 4.464844-12.023437 1.269531-17.636718l-24.816406-43.628906c-2.050781-3.601563-6.628906-4.859376-10.226562-2.8125-3.601563 2.050781-4.859375 6.628906-2.8125 10.226562l24.816406 43.628906c.105469.1875.304688.53125-.070312 1.015625-.375.480469-.757813.375-.964844.320313l-173.121094-47.578125c-.207031-.054688-.589844-.160157-.664062-.765625-.074219-.605469.269531-.800782.453124-.910156l110.351563-62.769532c.214844-.125.449219-.152344.691406-.089844.242188.066407.429688.210938.554688.429688l21.804687 38.332031c2.050782 3.601563 6.628906 4.859375 10.230469 2.8125 3.597656-2.046875 4.855469-6.628906 2.808594-10.226562l-21.804688-38.332031c-2.101562-3.695313-5.519531-6.351563-9.617187-7.476563-4.097656-1.128906-8.390625-.59375-12.085938 1.511719l-110.347656 62.773437c-5.613281 3.191407-8.726562 9.398438-7.921875 15.808594.800781 6.410156 5.347656 11.65625 11.574219 13.367187l7.9375 2.179688-15.589844 56.730469c-17.300781-6.621094-34.183594-14.367188-49.882812-23.433594-3.582032-2.070313-8.171876-.84375-10.242188 2.742187-2.074219 3.585938-.84375 8.175782 2.742188 10.246094 53.5625 30.941406 119.648437 46.6875 165.65625 54.445313 49.703124 8.386719 86.296874 9.496093 87.828124 9.539062.074219 0 .144532.003907.21875.003907 4.042969 0 7.375-3.222657 7.488282-7.289063.117187-4.140625-3.140625-7.589844-7.28125-7.707031zm-61.410156-5.71875 8.046874-29.277344 8.765626 2.410156-7.710938 28.050782c-2.941406-.363282-5.980469-.757813-9.101562-1.183594zm23.253906-50.320313-2.46875 8.988281-15.992188-4.398437c-3.996094-1.097656-8.125 1.253906-9.222656 5.246094l-10.523438 38.300781c-3.15625-.492188-6.371093-1.011719-9.644531-1.5625l5.402344-19.648438c1.097656-3.992187-1.25-8.121093-5.246094-9.21875l-48.675781-13.375c-1.917969-.527343-3.96875-.273437-5.695312.710938-1.730469.984375-2.996094 2.613281-3.523438 4.53125l-6.320312 23c-3.109376-.851562-6.222657-1.734375-9.34375-2.648438l11.703124-42.589843c1.097657-3.992188-1.25-8.121094-5.242187-9.21875l-15.996094-4.394531 2.46875-8.988282zm-97.390625 36.351563 4.277343-15.566406 34.210938 9.398437-3.769531 13.726563c-11.183594-2.132813-22.839844-4.628907-34.71875-7.558594zm-37.375-48.164063 8.765625 2.40625-9.597656 34.917969c-2.878907-.929688-5.757813-1.886719-8.632813-2.878906zm0 0"/><path d="m126.46875 32.015625c18.179688-6.609375 37.289062-9.96875 56.796875-9.976563h.082031c44.953125 0 87.226563 17.5 119.019532 49.28125 31.816406 31.800782 49.339843 74.085938 49.339843 119.066407 0 2.148437-.039062 8.792969-.109375 15.683593-.074218 6.984376-5.816406 12.671876-12.804687 12.671876-3.421875 0-6.636719-1.335938-9.054688-3.753907-2.417969-2.421875-3.75-5.640625-3.75-9.0625l.003907-4.085937c0-47.707032-38.8125-86.519532-86.523438-86.519532-45.621094 0-83.546875 35.636719-86.339844 81.132813-.007812.152344-.011718.308594-.011718.460937 0 50.964844 21.847656 94.324219 64.933593 128.867188 1.382813 1.109375 3.042969 1.648438 4.6875 1.648438 2.195313 0 4.375-.960938 5.855469-2.808594 2.589844-3.230469 2.070312-7.953125-1.160156-10.542969-39.292969-31.503906-59.25-70.847656-59.316406-116.933594 2.421874-37.492187 33.71875-66.824219 71.355468-66.824219 39.4375 0 71.519532 32.082032 71.519532 71.519532v4.078125c-.007813 7.429687 2.882812 14.414062 8.136718 19.671875 5.25 5.253906 12.234375 8.148437 19.664063 8.148437 15.171875 0 27.644531-12.339843 27.804687-27.511719.074219-6.941406.109375-13.660156.109375-15.84375 0-48.988281-19.082031-95.039062-53.730469-129.675781-34.636718-34.609375-80.667968-53.667969-129.628906-53.667969-.027344 0-.058594 0-.089844 0-21.257812.007813-42.089843 3.671876-61.917968 10.878907-3.894532 1.417969-5.898438 5.71875-4.484375 9.613281 1.414062 3.890625 5.710937 5.902344 9.613281 4.484375zm0 0"/><path d="m93.277344 48.476562c3.484375-2.242187 4.492187-6.882812 2.253906-10.367187s-6.882812-4.492187-10.363281-2.25c-25.585938 16.441406-46.957031 39.25-61.804688 65.949219-15.285156 27.484375-23.363281 58.695312-23.363281 90.261718v286.960938c0 4.140625 3.355469 7.5 7.5 7.5s7.5-3.359375 7.5-7.5v-286.960938c0-29.019531 7.425781-57.710937 21.472656-82.972656 13.648438-24.546875 33.292969-45.507812 56.804688-60.621094zm0 0"/><path d="m175.671875 387.863281c-5.375-4.140625-10.601563-8.457031-15.539063-12.832031-3.101562-2.746094-7.839843-2.460938-10.585937.640625s-2.460937 7.839844.640625 10.585937c5.191406 4.601563 10.683594 9.136719 16.324219 13.484376 1.363281 1.054687 2.976562 1.5625 4.574219 1.5625 2.246093 0 4.46875-1.003907 5.945312-2.921876 2.527344-3.28125 1.917969-7.988281-1.359375-10.519531zm0 0"/><path d="m307.707031 453.585938c-40.179687-12.695313-75.757812-28.65625-105.734375-47.445313-3.507812-2.199219-8.136718-1.140625-10.335937 2.371094-2.203125 3.507812-1.140625 8.136719 2.371093 10.335937 31.054688 19.464844 67.789063 35.964844 109.183594 49.039063.75.238281 1.511719.351562 2.261719.351562 3.183594 0 6.140625-2.042969 7.148437-5.242187 1.25-3.949219-.941406-8.164063-4.894531-9.410156zm0 0"/><path d="m100.613281 189.414062c-4.140625 0-7.5 3.355469-7.5 7.5 0 35.566407 8.066407 69.148438 23.96875 99.8125 1.335938 2.574219 3.953125 4.050782 6.664063 4.050782 1.164062 0 2.34375-.273438 3.445312-.84375 3.679688-1.910156 5.113282-6.433594 3.207032-10.113282-14.785157-28.507812-22.285157-59.769531-22.285157-92.90625 0-4.144531-3.355469-7.5-7.5-7.5zm0 0"/><path d="m316.746094 424.976562c-16.847656-5.320312-32.964844-11.296874-47.910156-17.757812-3.800782-1.644531-8.214844.105469-9.859376 3.90625-1.644531 3.800781.105469 8.21875 3.90625 9.859375 15.414063 6.667969 32.015626 12.820313 49.34375 18.296875.753907.234375 1.515626.347656 2.261719.347656 3.183594 0 6.140625-2.042968 7.148438-5.242187 1.25-3.949219-.941407-8.164063-4.890625-9.410157zm0 0"/><path d="m398.285156 444.9375c-12.078125-2.207031-24.042968-4.695312-35.5625-7.394531-4.023437-.953125-8.066406 1.558593-9.011718 5.589843-.945313 4.035157 1.558593 8.070313 5.589843 9.015626 11.761719 2.753906 23.96875 5.292968 36.285157 7.546874.457031.082032.910156.125 1.359374.125 3.550782 0 6.707032-2.535156 7.371094-6.152343.746094-4.078125-1.957031-7.984375-6.03125-8.730469zm0 0"/><path d="m45 192.066406c0-6.699218.476562-13.4375 1.410156-20.019531.582032-4.101563-2.269531-7.898437-6.371094-8.480469-4.105468-.585937-7.898437 2.269532-8.480468 6.371094-1.035156 7.277344-1.558594 14.722656-1.558594 22.128906 0 4.144532 3.355469 7.5 7.5 7.5s7.5-3.355468 7.5-7.5zm0 0"/><path d="m183.273438 52.039062h.074218v-7.5l-.078125-7.5c-31.9375.015626-62.566406 9.90625-88.582031 28.601563-25.414062 18.269531-44.527344 43.480469-55.265625 72.910156-1.421875 3.890625.582031 8.195313 4.472656 9.617188.847657.3125 1.714844.457031 2.570313.457031 3.0625 0 5.933594-1.890625 7.046875-4.929688 20-54.792968 72.148437-91.628906 129.761719-91.65625zm0 0"/><path d="m43.195312 265.28125h-.101562c-4.144531 0-7.5 3.359375-7.5 7.5 0 4.144531 3.355469 7.5 7.5 7.5h.101562c4.144532 0 7.5-3.355469 7.5-7.5 0-4.140625-3.355468-7.5-7.5-7.5zm0 0"/><path d="m150.605469 319.824219c0-4.140625-3.359375-7.5-7.5-7.5h-.105469c-4.144531 0-7.5 3.359375-7.5 7.5 0 4.144531 3.355469 7.5 7.5 7.5h.105469c4.140625 0 7.5-3.355469 7.5-7.5zm0 0"/><path d="m139.488281 396.816406c-19.179687-17.097656-35.664062-36.042968-48.988281-56.3125-2.273438-3.460937-6.925781-4.421875-10.386719-2.144531-3.460937 2.273437-4.421875 6.925781-2.144531 10.386719 14.042969 21.359375 31.382812 41.300781 51.539062 59.269531 1.429688 1.273437 3.214844 1.902344 4.988282 1.902344 2.0625 0 4.121094-.847657 5.601562-2.511719 2.757813-3.09375 2.484375-7.832031-.609375-10.589844zm0 0"/><path d="m297.726562 230.019531c.035157-4.144531-3.289062-7.53125-7.429687-7.570312l-.105469-.003907c-.023437 0-.046875 0-.070312 0-4.109375 0-7.460938 3.3125-7.5 7.433594-.039063 4.140625 3.289062 7.527344 7.429687 7.566406l.105469.003907h.070312c4.109376 0 7.460938-3.3125 7.5-7.429688zm0 0"/><path d="m305.5 235.765625h-.101562c-4.144532 0-7.5 3.359375-7.5 7.5 0 4.144531 3.355468 7.5 7.5 7.5h.101562c4.144531 0 7.5-3.355469 7.5-7.5 0-4.140625-3.355469-7.5-7.5-7.5zm0 0"/><path d="m284.402344 316.433594h-.101563c-.023437 0-.050781 0-.074219 0-4.105468 0-7.457031 3.3125-7.496093 7.429687-.039063 4.140625 3.285156 7.53125 7.429687 7.570313h.101563.074219c4.109374 0 7.457031-3.3125 7.496093-7.429688.039063-4.140625-3.285156-7.53125-7.429687-7.570312zm0 0"/><path d="m386.703125 174.03125c-.023437 0-.050781 0-.074219 0-4.105468 0-7.457031 3.3125-7.496094 7.429688-.039062 4.140624 3.285157 7.53125 7.429688 7.570312h.101562.074219c4.109375 0 7.457031-3.3125 7.496094-7.429688.039063-4.144531-3.285156-7.53125-7.429687-7.570312zm0 0"/><path d="m171.144531 90.355469c4.140625 0 7.5-3.359375 7.5-7.5 0-4.144531-3.359375-7.5-7.5-7.5h-.105469c-4.144531 0-7.5 3.355469-7.5 7.5 0 4.140625 3.355469 7.5 7.5 7.5zm0 0"/></svg>